<mxfile host="app.diagrams.net" agent="Mozilla/5.0 (X11; Linux x86_64) AppleWebKit/537.36 (KHTML, like Gecko) Chrome/128.0.0.0 Safari/537.36" version="27.0.4">
  <diagram name="Страница — 1" id="N3gCxyGSRhldq9W5N2jG">
    <mxGraphModel dx="1789" dy="1677" grid="0" gridSize="10" guides="0" tooltips="0" connect="0" arrows="1" fold="1" page="0" pageScale="1" pageWidth="827" pageHeight="1169" math="0" shadow="0">
      <root>
        <mxCell id="0" />
        <mxCell id="1" parent="0" />
        <mxCell id="dzPwvYdtK59I68hb9hbO-1" value="Администратор&lt;div&gt;&lt;br&gt;&lt;/div&gt;" style="shape=umlActor;verticalLabelPosition=bottom;verticalAlign=top;html=1;outlineConnect=0;" parent="1" vertex="1">
          <mxGeometry x="180" y="110" width="30" height="60" as="geometry" />
        </mxCell>
        <mxCell id="dzPwvYdtK59I68hb9hbO-4" value="Редактирование таблицы &quot;Роли&quot;" style="ellipse;whiteSpace=wrap;html=1;" parent="1" vertex="1">
          <mxGeometry x="300" y="-110" width="120" height="80" as="geometry" />
        </mxCell>
        <mxCell id="dzPwvYdtK59I68hb9hbO-5" value="Редактирование таблицы &quot;Пользователи&quot;" style="ellipse;whiteSpace=wrap;html=1;" parent="1" vertex="1">
          <mxGeometry x="-110" y="110" width="120" height="80" as="geometry" />
        </mxCell>
        <mxCell id="dzPwvYdtK59I68hb9hbO-6" value="Редактирование таблицы &quot;Пациенты&quot;" style="ellipse;whiteSpace=wrap;html=1;" parent="1" vertex="1">
          <mxGeometry x="-100" y="-90" width="120" height="80" as="geometry" />
        </mxCell>
        <mxCell id="dzPwvYdtK59I68hb9hbO-7" value="Редактирование таблицы &quot;Документы&quot;" style="ellipse;whiteSpace=wrap;html=1;" parent="1" vertex="1">
          <mxGeometry x="-60" y="-180" width="120" height="80" as="geometry" />
        </mxCell>
        <mxCell id="dzPwvYdtK59I68hb9hbO-9" value="Регистрация нового Пользователя" style="ellipse;whiteSpace=wrap;html=1;" parent="1" vertex="1">
          <mxGeometry x="233" y="-200" width="120" height="80" as="geometry" />
        </mxCell>
        <mxCell id="dzPwvYdtK59I68hb9hbO-10" value="Ввод личных данных" style="ellipse;whiteSpace=wrap;html=1;" parent="1" vertex="1">
          <mxGeometry x="380" y="-310" width="120" height="80" as="geometry" />
        </mxCell>
        <mxCell id="dzPwvYdtK59I68hb9hbO-11" value="" style="endArrow=classic;html=1;rounded=0;exitX=0.776;exitY=0.089;exitDx=0;exitDy=0;exitPerimeter=0;" parent="1" source="dzPwvYdtK59I68hb9hbO-9" target="dzPwvYdtK59I68hb9hbO-10" edge="1">
          <mxGeometry width="50" height="50" relative="1" as="geometry">
            <mxPoint x="290" y="-150" as="sourcePoint" />
            <mxPoint x="340" y="-200" as="targetPoint" />
          </mxGeometry>
        </mxCell>
        <mxCell id="dzPwvYdtK59I68hb9hbO-12" value="include" style="edgeLabel;html=1;align=center;verticalAlign=middle;resizable=0;points=[];" parent="dzPwvYdtK59I68hb9hbO-11" vertex="1" connectable="0">
          <mxGeometry x="0.0075" y="-1" relative="1" as="geometry">
            <mxPoint as="offset" />
          </mxGeometry>
        </mxCell>
        <mxCell id="dzPwvYdtK59I68hb9hbO-13" value="Выгрузка Документов" style="ellipse;whiteSpace=wrap;html=1;" parent="1" vertex="1">
          <mxGeometry x="16" y="-270" width="123" height="80" as="geometry" />
        </mxCell>
        <mxCell id="dzPwvYdtK59I68hb9hbO-14" value="" style="endArrow=classic;html=1;rounded=0;entryX=0.5;entryY=1;entryDx=0;entryDy=0;" parent="1" target="dzPwvYdtK59I68hb9hbO-13" edge="1">
          <mxGeometry width="50" height="50" relative="1" as="geometry">
            <mxPoint x="190" y="110" as="sourcePoint" />
            <mxPoint x="340" y="20" as="targetPoint" />
          </mxGeometry>
        </mxCell>
        <mxCell id="dzPwvYdtK59I68hb9hbO-15" value="" style="endArrow=classic;html=1;rounded=0;exitX=0.5;exitY=0;exitDx=0;exitDy=0;exitPerimeter=0;" parent="1" source="dzPwvYdtK59I68hb9hbO-1" target="dzPwvYdtK59I68hb9hbO-9" edge="1">
          <mxGeometry width="50" height="50" relative="1" as="geometry">
            <mxPoint x="130" as="sourcePoint" />
            <mxPoint x="180" y="-50" as="targetPoint" />
          </mxGeometry>
        </mxCell>
        <mxCell id="dzPwvYdtK59I68hb9hbO-16" value="" style="endArrow=classic;html=1;rounded=0;entryX=0.341;entryY=1.012;entryDx=0;entryDy=0;entryPerimeter=0;exitX=0.5;exitY=0;exitDx=0;exitDy=0;exitPerimeter=0;" parent="1" source="dzPwvYdtK59I68hb9hbO-1" target="dzPwvYdtK59I68hb9hbO-4" edge="1">
          <mxGeometry width="50" height="50" relative="1" as="geometry">
            <mxPoint x="180" y="100" as="sourcePoint" />
            <mxPoint x="90" y="40" as="targetPoint" />
          </mxGeometry>
        </mxCell>
        <mxCell id="dzPwvYdtK59I68hb9hbO-17" value="" style="endArrow=classic;html=1;rounded=0;exitX=0.5;exitY=0;exitDx=0;exitDy=0;exitPerimeter=0;entryX=0.951;entryY=0.628;entryDx=0;entryDy=0;entryPerimeter=0;" parent="1" source="dzPwvYdtK59I68hb9hbO-1" target="dzPwvYdtK59I68hb9hbO-5" edge="1">
          <mxGeometry width="50" height="50" relative="1" as="geometry">
            <mxPoint x="70" y="100" as="sourcePoint" />
            <mxPoint x="120" y="50" as="targetPoint" />
          </mxGeometry>
        </mxCell>
        <mxCell id="dzPwvYdtK59I68hb9hbO-18" value="" style="endArrow=classic;html=1;rounded=0;" parent="1" target="dzPwvYdtK59I68hb9hbO-6" edge="1">
          <mxGeometry width="50" height="50" relative="1" as="geometry">
            <mxPoint x="190" y="110" as="sourcePoint" />
            <mxPoint x="500" y="10" as="targetPoint" />
          </mxGeometry>
        </mxCell>
        <mxCell id="dzPwvYdtK59I68hb9hbO-19" value="" style="endArrow=classic;html=1;rounded=0;exitX=0.25;exitY=0.1;exitDx=0;exitDy=0;exitPerimeter=0;" parent="1" source="dzPwvYdtK59I68hb9hbO-1" target="dzPwvYdtK59I68hb9hbO-7" edge="1">
          <mxGeometry width="50" height="50" relative="1" as="geometry">
            <mxPoint y="180" as="sourcePoint" />
            <mxPoint x="50" y="130" as="targetPoint" />
          </mxGeometry>
        </mxCell>
        <mxCell id="dzPwvYdtK59I68hb9hbO-20" value="Просмотр Статистики&amp;nbsp;" style="ellipse;whiteSpace=wrap;html=1;" parent="1" vertex="1">
          <mxGeometry x="353" width="120" height="80" as="geometry" />
        </mxCell>
        <mxCell id="dzPwvYdtK59I68hb9hbO-21" value="" style="endArrow=classic;html=1;rounded=0;exitX=0.75;exitY=0.1;exitDx=0;exitDy=0;exitPerimeter=0;" parent="1" source="dzPwvYdtK59I68hb9hbO-1" target="dzPwvYdtK59I68hb9hbO-20" edge="1">
          <mxGeometry width="50" height="50" relative="1" as="geometry">
            <mxPoint x="250" y="160" as="sourcePoint" />
            <mxPoint x="300" y="110" as="targetPoint" />
          </mxGeometry>
        </mxCell>
        <mxCell id="dzPwvYdtK59I68hb9hbO-24" value="Авторизация" style="ellipse;whiteSpace=wrap;html=1;" parent="1" vertex="1">
          <mxGeometry x="-196" y="10" width="120" height="80" as="geometry" />
        </mxCell>
        <mxCell id="dzPwvYdtK59I68hb9hbO-25" value="" style="endArrow=classic;html=1;rounded=0;exitX=0.25;exitY=0.1;exitDx=0;exitDy=0;exitPerimeter=0;entryX=1;entryY=0.5;entryDx=0;entryDy=0;" parent="1" source="dzPwvYdtK59I68hb9hbO-1" target="dzPwvYdtK59I68hb9hbO-24" edge="1">
          <mxGeometry width="50" height="50" relative="1" as="geometry">
            <mxPoint x="30" y="190" as="sourcePoint" />
            <mxPoint x="80" y="140" as="targetPoint" />
          </mxGeometry>
        </mxCell>
        <mxCell id="dzPwvYdtK59I68hb9hbO-27" value="Просмотр личного кабинета" style="ellipse;whiteSpace=wrap;html=1;" parent="1" vertex="1">
          <mxGeometry x="135" y="-330" width="120" height="80" as="geometry" />
        </mxCell>
        <mxCell id="dzPwvYdtK59I68hb9hbO-30" value="" style="endArrow=classic;html=1;rounded=0;exitX=0.5;exitY=0;exitDx=0;exitDy=0;exitPerimeter=0;entryX=0.705;entryY=0.92;entryDx=0;entryDy=0;entryPerimeter=0;" parent="1" source="dzPwvYdtK59I68hb9hbO-1" target="dzPwvYdtK59I68hb9hbO-27" edge="1">
          <mxGeometry width="50" height="50" relative="1" as="geometry">
            <mxPoint x="90" y="-40" as="sourcePoint" />
            <mxPoint x="140" y="-90" as="targetPoint" />
          </mxGeometry>
        </mxCell>
        <mxCell id="dzPwvYdtK59I68hb9hbO-31" value="&lt;div&gt;&lt;br&gt;&lt;/div&gt;" style="shape=umlActor;verticalLabelPosition=bottom;verticalAlign=top;html=1;outlineConnect=0;" parent="1" vertex="1">
          <mxGeometry x="-82" y="-402" width="30" height="60" as="geometry" />
        </mxCell>
        <mxCell id="dzPwvYdtK59I68hb9hbO-32" value="" style="endArrow=classic;html=1;rounded=0;exitX=1;exitY=1;exitDx=0;exitDy=0;exitPerimeter=0;entryX=0;entryY=0;entryDx=0;entryDy=0;" parent="1" source="dzPwvYdtK59I68hb9hbO-31" target="dzPwvYdtK59I68hb9hbO-13" edge="1">
          <mxGeometry width="50" height="50" relative="1" as="geometry">
            <mxPoint x="-270" y="-170" as="sourcePoint" />
            <mxPoint x="-220" y="-220" as="targetPoint" />
          </mxGeometry>
        </mxCell>
        <mxCell id="dzPwvYdtK59I68hb9hbO-33" value="" style="endArrow=classic;html=1;rounded=0;exitX=1;exitY=1;exitDx=0;exitDy=0;exitPerimeter=0;" parent="1" source="dzPwvYdtK59I68hb9hbO-31" target="dzPwvYdtK59I68hb9hbO-27" edge="1">
          <mxGeometry width="50" height="50" relative="1" as="geometry">
            <mxPoint x="-160" y="-240" as="sourcePoint" />
            <mxPoint x="-110" y="-290" as="targetPoint" />
          </mxGeometry>
        </mxCell>
        <mxCell id="dzPwvYdtK59I68hb9hbO-34" value="" style="endArrow=classic;html=1;rounded=0;exitX=0;exitY=1;exitDx=0;exitDy=0;exitPerimeter=0;entryX=0.32;entryY=0.088;entryDx=0;entryDy=0;entryPerimeter=0;" parent="1" source="dzPwvYdtK59I68hb9hbO-31" target="dzPwvYdtK59I68hb9hbO-7" edge="1">
          <mxGeometry width="50" height="50" relative="1" as="geometry">
            <mxPoint x="-220" y="-230" as="sourcePoint" />
            <mxPoint x="-170" y="-280" as="targetPoint" />
          </mxGeometry>
        </mxCell>
        <mxCell id="dzPwvYdtK59I68hb9hbO-36" value="" style="endArrow=classic;html=1;rounded=0;exitX=0;exitY=1;exitDx=0;exitDy=0;exitPerimeter=0;entryX=0;entryY=0;entryDx=0;entryDy=0;" parent="1" source="dzPwvYdtK59I68hb9hbO-31" target="dzPwvYdtK59I68hb9hbO-6" edge="1">
          <mxGeometry width="50" height="50" relative="1" as="geometry">
            <mxPoint x="-250" y="-130" as="sourcePoint" />
            <mxPoint x="-100" y="-100" as="targetPoint" />
          </mxGeometry>
        </mxCell>
        <mxCell id="dzPwvYdtK59I68hb9hbO-37" value="Просмотр Личной Статистики" style="ellipse;whiteSpace=wrap;html=1;" parent="1" vertex="1">
          <mxGeometry x="-279" y="-87" width="120" height="80" as="geometry" />
        </mxCell>
        <mxCell id="dzPwvYdtK59I68hb9hbO-38" value="" style="endArrow=classic;html=1;rounded=0;exitX=0;exitY=1;exitDx=0;exitDy=0;exitPerimeter=0;entryX=0.5;entryY=0;entryDx=0;entryDy=0;" parent="1" source="dzPwvYdtK59I68hb9hbO-31" target="dzPwvYdtK59I68hb9hbO-24" edge="1">
          <mxGeometry width="50" height="50" relative="1" as="geometry">
            <mxPoint x="-135" y="-276" as="sourcePoint" />
            <mxPoint x="-135" y="-211" as="targetPoint" />
          </mxGeometry>
        </mxCell>
        <mxCell id="dzPwvYdtK59I68hb9hbO-40" value="" style="endArrow=classic;html=1;rounded=0;exitX=0;exitY=1;exitDx=0;exitDy=0;exitPerimeter=0;" parent="1" source="dzPwvYdtK59I68hb9hbO-31" target="dzPwvYdtK59I68hb9hbO-37" edge="1">
          <mxGeometry width="50" height="50" relative="1" as="geometry">
            <mxPoint x="-225" y="-251" as="sourcePoint" />
            <mxPoint x="-175" y="-301" as="targetPoint" />
          </mxGeometry>
        </mxCell>
        <mxCell id="dzPwvYdtK59I68hb9hbO-42" value="Изменение пароля" style="ellipse;whiteSpace=wrap;html=1;" parent="1" vertex="1">
          <mxGeometry x="276" y="-450" width="120" height="80" as="geometry" />
        </mxCell>
        <mxCell id="dzPwvYdtK59I68hb9hbO-43" value="" style="endArrow=classic;html=1;rounded=0;exitX=0.696;exitY=0.073;exitDx=0;exitDy=0;exitPerimeter=0;entryX=0;entryY=1;entryDx=0;entryDy=0;" parent="1" source="dzPwvYdtK59I68hb9hbO-27" target="dzPwvYdtK59I68hb9hbO-42" edge="1">
          <mxGeometry width="50" height="50" relative="1" as="geometry">
            <mxPoint x="251" y="-318" as="sourcePoint" />
            <mxPoint x="323" y="-367" as="targetPoint" />
          </mxGeometry>
        </mxCell>
        <mxCell id="dzPwvYdtK59I68hb9hbO-44" value="extends" style="edgeLabel;html=1;align=center;verticalAlign=middle;resizable=0;points=[];" parent="dzPwvYdtK59I68hb9hbO-43" vertex="1" connectable="0">
          <mxGeometry x="0.0075" y="-1" relative="1" as="geometry">
            <mxPoint as="offset" />
          </mxGeometry>
        </mxCell>
        <mxCell id="tfG9m6ylE4LsX6b8l9DQ-1" value="Педагог" style="text;html=1;align=center;verticalAlign=middle;whiteSpace=wrap;rounded=0;" vertex="1" parent="1">
          <mxGeometry x="-97" y="-433" width="60" height="30" as="geometry" />
        </mxCell>
        <mxCell id="tfG9m6ylE4LsX6b8l9DQ-4" value="" style="endArrow=classic;html=1;rounded=0;exitX=0.942;exitY=0.23;exitDx=0;exitDy=0;exitPerimeter=0;entryX=0.117;entryY=0.84;entryDx=0;entryDy=0;entryPerimeter=0;" edge="1" parent="1" source="dzPwvYdtK59I68hb9hbO-20" target="tfG9m6ylE4LsX6b8l9DQ-6">
          <mxGeometry width="50" height="50" relative="1" as="geometry">
            <mxPoint x="481" y="14" as="sourcePoint" />
            <mxPoint x="538" y="-30" as="targetPoint" />
          </mxGeometry>
        </mxCell>
        <mxCell id="tfG9m6ylE4LsX6b8l9DQ-5" value="extends" style="edgeLabel;html=1;align=center;verticalAlign=middle;resizable=0;points=[];" vertex="1" connectable="0" parent="tfG9m6ylE4LsX6b8l9DQ-4">
          <mxGeometry x="0.0075" y="-1" relative="1" as="geometry">
            <mxPoint as="offset" />
          </mxGeometry>
        </mxCell>
        <mxCell id="tfG9m6ylE4LsX6b8l9DQ-6" value="Экспорт статистики" style="ellipse;whiteSpace=wrap;html=1;" vertex="1" parent="1">
          <mxGeometry x="536" y="-100" width="120" height="80" as="geometry" />
        </mxCell>
        <mxCell id="tfG9m6ylE4LsX6b8l9DQ-9" value="" style="endArrow=classic;html=1;rounded=0;exitX=0.545;exitY=0.045;exitDx=0;exitDy=0;exitPerimeter=0;entryX=0.49;entryY=0.965;entryDx=0;entryDy=0;entryPerimeter=0;" edge="1" parent="1" source="dzPwvYdtK59I68hb9hbO-27" target="tfG9m6ylE4LsX6b8l9DQ-11">
          <mxGeometry width="50" height="50" relative="1" as="geometry">
            <mxPoint x="132" y="-343" as="sourcePoint" />
            <mxPoint x="192" y="-424" as="targetPoint" />
          </mxGeometry>
        </mxCell>
        <mxCell id="tfG9m6ylE4LsX6b8l9DQ-10" value="extends" style="edgeLabel;html=1;align=center;verticalAlign=middle;resizable=0;points=[];" vertex="1" connectable="0" parent="tfG9m6ylE4LsX6b8l9DQ-9">
          <mxGeometry x="0.0075" y="-1" relative="1" as="geometry">
            <mxPoint as="offset" />
          </mxGeometry>
        </mxCell>
        <mxCell id="tfG9m6ylE4LsX6b8l9DQ-11" value="Просмотр персональных данных" style="ellipse;whiteSpace=wrap;html=1;" vertex="1" parent="1">
          <mxGeometry x="120" y="-506" width="120" height="80" as="geometry" />
        </mxCell>
        <mxCell id="tfG9m6ylE4LsX6b8l9DQ-12" value="Изменение фотографии личного кабинета" style="ellipse;whiteSpace=wrap;html=1;" vertex="1" parent="1">
          <mxGeometry x="104" y="-642" width="130" height="80" as="geometry" />
        </mxCell>
        <mxCell id="tfG9m6ylE4LsX6b8l9DQ-14" value="" style="endArrow=classic;html=1;rounded=0;exitX=0.483;exitY=0.005;exitDx=0;exitDy=0;exitPerimeter=0;entryX=0.565;entryY=0.988;entryDx=0;entryDy=0;entryPerimeter=0;" edge="1" parent="1" source="tfG9m6ylE4LsX6b8l9DQ-11" target="tfG9m6ylE4LsX6b8l9DQ-12">
          <mxGeometry width="50" height="50" relative="1" as="geometry">
            <mxPoint x="272" y="-493" as="sourcePoint" />
            <mxPoint x="251" y="-596" as="targetPoint" />
          </mxGeometry>
        </mxCell>
        <mxCell id="tfG9m6ylE4LsX6b8l9DQ-15" value="extends" style="edgeLabel;html=1;align=center;verticalAlign=middle;resizable=0;points=[];" vertex="1" connectable="0" parent="tfG9m6ylE4LsX6b8l9DQ-14">
          <mxGeometry x="0.0075" y="-1" relative="1" as="geometry">
            <mxPoint as="offset" />
          </mxGeometry>
        </mxCell>
      </root>
    </mxGraphModel>
  </diagram>
</mxfile>
